<?xml version="1.0" encoding="UTF-8" standalone="no"?>
<!-- Created with Inkscape (http://www.inkscape.org/) -->

<svg
   xmlns:dc="http://purl.org/dc/elements/1.1/"
   xmlns:cc="http://creativecommons.org/ns#"
   xmlns:rdf="http://www.w3.org/1999/02/22-rdf-syntax-ns#"
   xmlns:svg="http://www.w3.org/2000/svg"
   xmlns="http://www.w3.org/2000/svg"
   xmlns:sodipodi="http://sodipodi.sourceforge.net/DTD/sodipodi-0.dtd"
   xmlns:inkscape="http://www.inkscape.org/namespaces/inkscape"
   width="50"
   height="55"
   id="svg2"
   version="1.1"
   inkscape:version="0.48.4 r9939"
   sodipodi:docname="I_test.png">
  <defs
     id="defs4" />
  <sodipodi:namedview
     id="base"
     pagecolor="#ffffff"
     bordercolor="#666666"
     borderopacity="1.0"
     inkscape:pageopacity="0.0"
     inkscape:pageshadow="2"
     inkscape:zoom="3.959798"
     inkscape:cx="-22.301959"
     inkscape:cy="-1.5905187"
     inkscape:document-units="px"
     inkscape:current-layer="layer1"
     showgrid="false"
     inkscape:window-width="1215"
     inkscape:window-height="776"
     inkscape:window-x="65"
     inkscape:window-y="24"
     inkscape:window-maximized="1" />
  <metadata
     id="metadata7">
    <rdf:RDF>
      <cc:Work
         rdf:about="">
        <dc:format>image/svg+xml</dc:format>
        <dc:type
           rdf:resource="http://purl.org/dc/dcmitype/StillImage" />
        <dc:title></dc:title>
      </cc:Work>
    </rdf:RDF>
  </metadata>
  <g
     inkscape:label="Capa 1"
     inkscape:groupmode="layer"
     id="layer1"
     transform="translate(0,-997.36218)">
    <path
       style="fill:none;stroke:#7aed2e;stroke-width:5.03610897;stroke-linecap:butt;stroke-linejoin:miter;stroke-miterlimit:4;stroke-opacity:1;stroke-dasharray:none"
       d="m 24.247477,1003.6404 c 0,1.7576 0,3.5151 0,5.2726 0,0.3515 0,0.7031 0,1.0546 0,0.3515 -0.04058,0.7057 0,1.0545 0.08367,0.719 0.395435,1.3917 0.490837,2.109 0.0347,0.261 -0.04813,0.5324 0,0.7909 0.03588,0.1927 0.201053,0.3367 0.245418,0.5273 0.03968,0.1705 0,0.3515 0,0.5272 0,0.5273 0,1.0546 0,1.5818 0,1.4061 0,2.8121 0,4.2181 0,3.603 0,7.2059 0,10.8089 0,1.0545 0,2.1091 0,3.1636 0,0.1135 0.03321,1.5104 0,1.5818 -0.303264,0.6515 -0.245418,-0.091 -0.245418,0.5272 0,0.1653 0.03032,1.022 0,1.0546 -0.05784,0.062 -0.187573,-0.062 -0.245419,0 -0.06562,0.07 0.07827,1.1499 0,1.3181 -0.05174,0.1112 -0.193679,0.1525 -0.245418,0.2636 -0.03659,0.079 0,0.1758 0,0.2637 0,0.1757 0.05174,0.3605 0,0.5272 -0.03659,0.1179 -0.193681,0.1525 -0.245419,0.2637 -0.04437,0.095 0,1.1347 0,1.3181 0,0.7909 0,1.5818 0,2.3727 0,0.088 0,0.1758 0,0.2636 0,0.088 0.05784,0.2015 0,0.2637 -0.05784,0.062 -0.163613,0 -0.245419,0"
       id="path2984"
       inkscape:connector-curvature="0" />
  </g>
</svg>
